# xmcd
#
# Track frame offsets: 
#        182
#        12632
#        26415
#        38512
#        49007
#        59162
#        69915
#        83790
#        94592
#        107367
#        121052
#        132870
#        144660
#        157422
#        169665
#        181750
#        194097
#        205547
#        217997
#        232847
#        244247
#        256497
#        267347
#        280372
#        290522
#
# Disc length: 4050 seconds
#
# Revision: 1
# Processed by: cddbd v1.5.2PL0 Copyright (c) Steve Scherf et al.
# Submitted via: ExactAudioCopyFreeDBPlugin 1.0
#
DISCID=680fd019
DTITLE=Lowell Fulson - Mean Lonesome Blues
DYEAR=2000
DGENRE=Blues
TTITLE0=Guitar Shuffle
TTITLE1=Blues And Misery
TTITLE2=Baby Won't You Jump With Me
TTITLE3=My Daily Prayer
TTITLE4=Bad Luck And Trouble
TTITLE5=It's Hard To Believe
TTITLE6=I Had A Little Woman
TTITLE7=9:30 Shuffle
TTITLE8=Let Me Love You Baby
TTITLE9=Wee Hours Of The Morning
TTITLE10=Tears At Sunrise
TTITLE11=Best Wishes
TTITLE12=Thinking Blues
TTITLE13=Just A Poor Boy
TTITLE14=Jam That Boogie
TTITLE15=Ain't Nobody's Business
TTITLE16=Ride Until The Sun Goes Down
TTITLE17=I've Got A Mind To Ramble
TTITLE18=Is Your Friend Really Your Friend
TTITLE19=The Day Is Slowly Passing On
TTITLE20=Rocking After Midnight
TTITLE21=Blues Wth A Feeling
TTITLE22=Rainy Day Blues
TTITLE23=Mama Bring Your Clothes Back Home
TTITLE24=Good-Bye, Good-Bye
EXTD=
EXTT0=
EXTT1=
EXTT2=
EXTT3=
EXTT4=
EXTT5=
EXTT6=
EXTT7=
EXTT8=
EXTT9=
EXTT10=
EXTT11=
EXTT12=
EXTT13=
EXTT14=
EXTT15=
EXTT16=
EXTT17=
EXTT18=
EXTT19=
EXTT20=
EXTT21=
EXTT22=
EXTT23=
EXTT24=
PLAYORDER=
